<?xml version="1.0" encoding="utf-8"?>
<!-- Generator: Adobe Illustrator 26.0.1, SVG Export Plug-In . SVG Version: 6.00 Build 0)  -->
<svg version="1.1" id="Layer_1" xmlns="http://www.w3.org/2000/svg" xmlns:xlink="http://www.w3.org/1999/xlink" x="0px" y="0px"
	 viewBox="0 0 500 500" style="enable-background:new 0 0 500 500;" xml:space="preserve">
<style type="text/css">
	.st0{fill:#FF90BA;}
	.st1{fill:#BBBDBF;}
	.st2{fill:#FFCC00;}
	.st3{fill:#FBCC92;}
	.st4{fill:#231F20;}
</style>
<path class="st0" d="M55.3,298.6H21.4C9.6,298.6,0,289,0,277.2v-54.4c0-11.8,9.6-21.4,21.4-21.4h33.9V298.6z"/>
<rect x="58.5" y="201.4" class="st1" width="27.7" height="97.2"/>
<path class="st2" d="M388.4,201.5l15.8,14.4l-15.8,15.9h-299v-30.2H388.4z M404.2,249.3l-15.8-14.4H89.3v30.2h299L404.2,249.3z
	 M388.4,298.5l15.8-15.9l-15.8-14.4H89.3v30.2H388.4z"/>
<polygon class="st3" points="477.8,258.7 395.9,295.4 408.7,282.6 391.3,266.6 408.7,249.2 391.3,233.2 408.7,215.7 396.7,204.8 
	477.8,239.4 "/>
<polygon class="st4" points="481.7,241 500,248.8 481.7,257 "/>
</svg>
